<svg width="31" height="22" viewBox="0 0 31 22" fill="none" xmlns="http://www.w3.org/2000/svg">
<path d="M17.0183 12.0321L12.3791 19.9776L7.73986 12.0321H17.0183ZM18.2612 11.322H6.492L12.3791 21.383L18.2612 11.322Z" fill="white"/>
<path d="M25.0842 2.14975L29.7234 10.0953H20.4449L25.0842 2.14975ZM25.0842 0.729492L19.1971 10.7905H30.9713L25.0842 0.729492Z" fill="white"/>
<path d="M0.85144 0.729492L5.78757 9.62848L11.1815 0.952948L0.85144 0.729492Z" fill="#4CAF4F"/>
<path d="M12.3792 1.50909L17.5569 10.3584H7.19153L12.3792 1.50909Z" fill="#4CAF4F"/>
<path d="M18.8902 12.2903L24.0729 21.383H13.461L18.7292 12.2903H18.8902Z" fill="#4CAF4F"/>
<path d="M20.0122 11.7391L25.0842 20.6927L30.2266 11.7391H20.0122Z" fill="#4CAF4F"/>
</svg>
