<svg width="34" height="35" viewBox="0 0 34 35" fill="none" xmlns="http://www.w3.org/2000/svg">
<rect x="0.0922852" y="0.919416" width="33.4113" height="33.4113" rx="5.56856" fill="#F5F7FA"/>
<g clip-path="url(#clip0_4_897)">
<path fill-rule="evenodd" clip-rule="evenodd" d="M7.12127 10.6375L0.170471 17.5184C1.56076 18.8948 3.14895 20.0547 4.88052 20.9622C5.35914 22.219 6.10936 23.3976 7.13117 24.4092C10.9755 28.2148 17.2083 28.2148 21.0526 24.4092C22.0744 23.3976 22.8246 22.219 23.3032 20.9621C25.0348 20.0547 26.623 18.8948 28.0133 17.5184L21.0681 10.6431C21.0629 10.638 21.0578 10.6328 21.0526 10.6277C17.2083 6.82205 10.9755 6.82205 7.13117 10.6277C7.12787 10.631 7.12457 10.6342 7.12127 10.6375ZM20.3875 22.2036C18.3619 22.8803 16.2355 23.2269 14.0919 23.2269C11.9482 23.2269 9.82189 22.8803 7.79633 22.2036C8.0158 22.4918 8.2581 22.7685 8.5233 23.031C11.5987 26.0756 16.585 26.0756 19.6604 23.031C19.9256 22.7685 20.168 22.4918 20.3875 22.2036ZM8.66607 11.868C9.18833 12.2096 9.74365 12.5019 10.3247 12.7402C11.519 13.2299 12.7991 13.4819 14.0919 13.4819C15.3846 13.4819 16.6647 13.2299 17.859 12.7402C18.4401 12.5019 18.9954 12.2096 19.5177 11.868C16.4806 9.00726 11.7031 9.00727 8.66607 11.868Z" fill="#3B4158"/>
</g>
<defs>
<clipPath id="clip0_4_897">
<rect width="27.8428" height="19.4899" fill="white" transform="translate(0.170471 7.77346)"/>
</clipPath>
</defs>
</svg>
