<svg width="35" height="35" viewBox="0 0 35 35" fill="none" xmlns="http://www.w3.org/2000/svg">
<rect x="0.942871" y="0.919416" width="33.4113" height="33.4113" rx="5.56856" fill="#F5F7FA"/>
<g clip-path="url(#clip0_4_920)">
<path d="M27.6981 9.05684C27.6981 9.3812 27.9643 9.64414 28.2927 9.64414H28.8872C29.2156 9.64414 29.4818 9.3812 29.4818 9.05684C29.4818 8.73248 29.2156 8.46953 28.8872 8.46953H28.2927C27.9643 8.46953 27.6981 8.73248 27.6981 9.05684Z" fill="#212326"/>
<path d="M10.4558 27.2634H13.3441L12.5032 26.4328C12.2803 26.2125 11.9778 26.0888 11.6624 26.0888H10.4558C5.85869 26.0888 2.13199 22.4075 2.13199 17.8665C2.13199 13.3254 5.85869 9.64415 10.4558 9.64415H19.9688C24.5659 9.64415 28.2926 13.3254 28.2926 17.8665C28.2926 22.4075 24.5659 26.0888 19.9688 26.0888H16.4102C15.9371 26.0888 15.4834 25.9031 15.1489 25.5728L14.1638 24.5997C13.6063 24.0489 12.8501 23.7396 12.0617 23.7396H10.4558C7.17214 23.7396 4.51023 21.1101 4.51023 17.8665C4.51023 14.6228 7.17214 11.9934 10.4558 11.9934H19.9688C23.2525 11.9934 25.9144 14.6228 25.9144 17.8665C25.9144 21.1101 23.2525 23.7396 19.9688 23.7396H17.6838C17.2107 23.7396 16.7571 23.5539 16.4225 23.2235L15.4374 22.2504C14.8799 21.6997 14.1238 21.3903 13.3353 21.3903H10.4558C8.48564 21.3903 6.88846 19.8126 6.88846 17.8665C6.88846 15.9203 8.48564 14.3426 10.4558 14.3426H19.9688C21.9389 14.3426 23.5361 15.9203 23.5361 17.8665C23.5361 19.7889 21.9777 21.3518 20.0407 21.3896L20.0403 21.3903H19.1702C18.6971 21.3903 18.2435 21.2047 17.9089 20.8743L16.9238 19.9012C16.4664 19.4493 15.8752 19.1599 15.2422 19.0706L15.2123 19.0411H10.4558C9.79909 19.0411 9.2667 18.5152 9.2667 17.8665C9.2667 17.2177 9.79909 16.6918 10.4558 16.6918H19.9688C20.6255 16.6918 21.1579 17.2177 21.1579 17.8665C21.1579 18.5152 20.6255 19.0411 19.9688 19.0411H17.5905L18.4314 19.8717C18.6544 20.0919 18.9568 20.2157 19.2722 20.2157H19.9688C21.2822 20.2157 22.347 19.1639 22.347 17.8665C22.347 16.569 21.2822 15.5172 19.9688 15.5172H10.4558C9.14237 15.5172 8.07758 16.569 8.07758 17.8665C8.07758 19.1639 9.14237 20.2157 10.4558 20.2157H14.8217C15.2948 20.2157 15.7485 20.4013 16.083 20.7317L17.0681 21.7048C17.6256 22.2555 18.3818 22.5649 19.1702 22.5649H20.2661V22.5559C22.7545 22.4043 24.7252 20.3627 24.7252 17.8665C24.7252 15.2716 22.5957 13.168 19.9688 13.168H10.4558C7.82891 13.168 5.69935 15.2716 5.69935 17.8665C5.69935 20.4614 7.82891 22.5649 10.4558 22.5649H13.3353C13.8084 22.5649 14.2621 22.7506 14.5966 23.081L15.5817 24.0541C16.1392 24.6048 16.8954 24.9142 17.6838 24.9142H19.9688C23.9092 24.9142 27.1035 21.7588 27.1035 17.8665C27.1035 13.9741 23.9092 10.8188 19.9688 10.8188H10.4558C6.51541 10.8188 3.32111 13.9741 3.32111 17.8665C3.32111 21.7588 6.51541 24.9142 10.4558 24.9142H12.0617C12.5348 24.9142 12.9885 25.0998 13.323 25.4302L14.3081 26.4033C14.8656 26.954 15.6217 27.2634 16.4102 27.2634H19.9688C25.2226 27.2634 29.4817 23.0563 29.4817 17.8665C29.4817 12.6767 25.2226 8.46953 19.9688 8.46953L10.4558 8.46953C5.20196 8.46953 0.942871 12.6767 0.942871 17.8665C0.942872 23.0563 5.20197 27.2634 10.4558 27.2634Z" fill="#212326"/>
</g>
<defs>
<clipPath id="clip0_4_920">
<rect width="28.5388" height="18.7939" fill="white" transform="translate(0.942871 8.46953)"/>
</clipPath>
</defs>
</svg>
