<svg width="23" height="23" viewBox="0 0 23 23" fill="none" xmlns="http://www.w3.org/2000/svg">
<path opacity="0.1" fill-rule="evenodd" clip-rule="evenodd" d="M0.262817 11.2779C0.262817 5.12706 5.24907 0.140808 11.3999 0.140808C17.5508 0.140808 22.537 5.12706 22.537 11.2779C22.537 17.4288 17.5508 22.415 11.3999 22.415C5.24907 22.415 0.262817 17.4288 0.262817 11.2779Z" fill="white"/>
<path fill-rule="evenodd" clip-rule="evenodd" d="M17.3397 11.2697C17.3397 11.6714 17.2988 12.0725 17.2185 12.4635C17.1402 12.8453 17.0242 13.22 16.8722 13.5783C16.7237 13.9302 16.5395 14.2694 16.3243 14.5856C16.1123 14.8999 15.8681 15.1947 15.5998 15.4635C15.3309 15.7311 15.0351 15.9746 14.7209 16.1876C14.4036 16.4013 14.064 16.5852 13.7119 16.7344C13.3531 16.8855 12.9775 17.0014 12.5961 17.0796C12.2045 17.1601 11.8019 17.2012 11.3997 17.2012C10.9971 17.2012 10.5945 17.1601 10.2035 17.0796C9.82155 17.0014 9.44594 16.8855 9.08745 16.7344C8.73534 16.5852 8.39539 16.4013 8.07809 16.1876C7.76398 15.9747 7.46813 15.7311 7.19984 15.4635C6.93127 15.1947 6.68704 14.8999 6.47473 14.5856C6.26068 14.2694 6.07619 13.9302 5.92712 13.5783C5.77512 13.22 5.65883 12.8453 5.58022 12.4635C5.50076 12.0725 5.46014 11.6714 5.46014 11.2697C5.46014 10.8677 5.50074 10.4657 5.58025 10.0755C5.65885 9.69381 5.77514 9.31846 5.92715 8.96078C6.07622 8.6086 6.2607 8.26917 6.47475 7.95289C6.68706 7.63836 6.93129 7.34408 7.19986 7.07502C7.46816 6.80739 7.764 6.56442 8.07812 6.35184C8.39542 6.13721 8.73536 5.95332 9.08747 5.80386C9.44597 5.65236 9.82155 5.53623 10.2036 5.45862C10.5945 5.37869 10.9971 5.33813 11.3997 5.33813C11.802 5.33813 12.2045 5.37869 12.5961 5.45862C12.9775 5.53625 13.3531 5.65238 13.7119 5.80386C14.064 5.9533 14.4037 6.13721 14.721 6.35184C15.0351 6.56442 15.331 6.80739 15.5998 7.07502C15.8681 7.34408 16.1123 7.63836 16.3243 7.95289C16.5395 8.26917 16.7237 8.60863 16.8722 8.96078C17.0242 9.31846 17.1402 9.69381 17.2185 10.0755C17.2988 10.4657 17.3397 10.8677 17.3397 11.2697ZM9.23534 6.68808C7.82078 7.3551 6.76502 8.65667 6.43581 10.2253C6.56954 10.2265 8.68338 10.2531 11.1189 9.60693C10.2409 8.04931 9.30292 6.77818 9.23534 6.68808ZM11.5391 10.3869C8.92731 11.1677 6.42103 11.1115 6.33112 11.1081C6.32966 11.1625 6.32705 11.2152 6.32705 11.2697C6.32705 12.571 6.81868 13.7573 7.62674 14.6543C7.625 14.6516 9.01317 12.1924 11.7506 11.3085C11.8167 11.2865 11.884 11.2668 11.9507 11.2477C11.8234 10.9598 11.6844 10.6713 11.5391 10.3869ZM14.7497 7.46805C13.8566 6.6817 12.684 6.20472 11.3997 6.20472C10.9875 6.20472 10.5875 6.25454 10.2044 6.34663C10.2804 6.44859 11.2332 7.71077 12.1007 9.30137C14.0147 8.58485 14.7372 7.48658 14.7497 7.46805ZM12.2965 12.087C12.2852 12.0908 12.2739 12.094 12.2629 12.098C9.26994 13.1399 8.29256 15.2396 8.28198 15.2625C9.14314 15.9312 10.2233 16.3347 11.3997 16.3347C12.1022 16.3347 12.7713 16.1918 13.3801 15.9332C13.305 15.4907 13.0103 13.9395 12.2965 12.087ZM14.2343 15.4704C15.3732 14.7029 16.1822 13.4842 16.4078 12.0725C16.3034 12.0389 14.8842 11.5903 13.2469 11.8524C13.9123 13.6782 14.1826 15.1652 14.2343 15.4704ZM12.4911 10.0561C12.6089 10.2977 12.7229 10.5436 12.8281 10.7906C12.8656 10.8793 12.9021 10.9662 12.9378 11.053C14.6804 10.8341 16.3971 11.2025 16.4705 11.2175C16.4589 10.0168 16.0288 8.91472 15.317 8.05194C15.3075 8.06552 14.4939 9.23938 12.4911 10.0561Z" fill="white"/>
</svg>
