<svg width="24" height="23" viewBox="0 0 24 23" fill="none" xmlns="http://www.w3.org/2000/svg">
<path opacity="0.1" fill-rule="evenodd" clip-rule="evenodd" d="M0.85144 11.2779C0.85144 5.12706 5.8377 0.140808 11.9886 0.140808C18.1394 0.140808 23.1257 5.12706 23.1257 11.2779C23.1257 17.4288 18.1394 22.415 11.9886 22.415C5.8377 22.415 0.85144 17.4288 0.85144 11.2779Z" fill="white"/>
<path fill-rule="evenodd" clip-rule="evenodd" d="M11.9891 5.33813C10.376 5.33813 10.1735 5.34519 9.53992 5.37402C8.90757 5.40298 8.47594 5.50309 8.09826 5.64998C7.7076 5.80169 7.3762 6.00464 7.04604 6.33492C6.71564 6.66507 6.51269 6.99647 6.36049 7.38701C6.21323 7.76481 6.11299 8.19657 6.08453 8.82867C6.05619 9.46225 6.04877 9.66482 6.04877 11.278C6.04877 12.8912 6.05594 13.093 6.08465 13.7266C6.11373 14.3589 6.21385 14.7905 6.36061 15.1682C6.51245 15.5589 6.71539 15.8903 7.04567 16.2204C7.37571 16.5508 7.7071 16.7543 8.09752 16.906C8.47545 17.0529 8.9072 17.153 9.53942 17.182C10.173 17.2108 10.3753 17.2178 11.9884 17.2178C13.6017 17.2178 13.8035 17.2108 14.4371 17.182C15.0694 17.153 15.5016 17.0529 15.8795 16.906C16.27 16.7543 16.6009 16.5508 16.931 16.2204C17.2614 15.8903 17.4643 15.5589 17.6165 15.1683C17.7625 14.7905 17.8628 14.3588 17.8925 13.7267C17.9209 13.0931 17.9284 12.8912 17.9284 11.278C17.9284 9.66482 17.9209 9.46237 17.8925 8.82879C17.8628 8.19644 17.7625 7.76481 17.6165 7.38714C17.4643 6.99647 17.2614 6.66507 16.931 6.33492C16.6005 6.00451 16.2701 5.80157 15.8791 5.64998C15.5004 5.50309 15.0686 5.40298 14.4362 5.37402C13.8026 5.34519 13.6009 5.33813 11.9873 5.33813H11.9891ZM11.4562 6.40853C11.6144 6.40828 11.7908 6.40853 11.9891 6.40853C13.575 6.40853 13.763 6.41422 14.3893 6.44268C14.9684 6.46917 15.2827 6.56594 15.4921 6.64724C15.7693 6.7549 15.9669 6.88359 16.1747 7.09149C16.3826 7.29938 16.5113 7.49738 16.6192 7.77457C16.7005 7.9837 16.7974 8.29802 16.8238 8.87716C16.8522 9.50332 16.8584 9.69141 16.8584 11.2766C16.8584 12.8618 16.8522 13.0499 16.8238 13.6761C16.7973 14.2552 16.7005 14.5695 16.6192 14.7787C16.5115 15.0558 16.3826 15.2532 16.1747 15.461C15.9668 15.6689 15.7694 15.7976 15.4921 15.9052C15.283 15.9869 14.9684 16.0834 14.3893 16.1099C13.7631 16.1384 13.575 16.1446 11.9891 16.1446C10.403 16.1446 10.2151 16.1384 9.5889 16.1099C9.00976 16.0832 8.69544 15.9864 8.48594 15.9051C8.20875 15.7975 8.01075 15.6688 7.80286 15.4609C7.59496 15.253 7.46626 15.0555 7.35836 14.7782C7.27705 14.569 7.18016 14.2547 7.1538 13.6756C7.12534 13.0494 7.11965 12.8613 7.11965 11.2751C7.11965 9.68894 7.12534 9.50183 7.1538 8.87567C7.18028 8.29654 7.27705 7.98222 7.35836 7.77284C7.46602 7.49565 7.59496 7.29765 7.80286 7.08976C8.01075 6.88186 8.20875 6.75316 8.48594 6.64526C8.69532 6.56358 9.00976 6.46706 9.5889 6.44046C10.1368 6.41571 10.3492 6.40828 11.4562 6.40704V6.40853ZM15.1597 7.3948C14.7662 7.3948 14.447 7.71369 14.447 8.10733C14.447 8.50085 14.7662 8.82011 15.1597 8.82011C15.5533 8.82011 15.8725 8.50085 15.8725 8.10733C15.8725 7.71381 15.5533 7.3948 15.1597 7.3948ZM11.9891 8.22761C10.3046 8.22761 8.93876 9.59341 8.93876 11.278C8.93876 12.9625 10.3046 14.3277 11.9891 14.3277C13.6737 14.3277 15.039 12.9625 15.039 11.278C15.039 9.59341 13.6737 8.22761 11.9891 8.22761ZM11.9891 9.29802C13.0825 9.29802 13.9691 10.1844 13.9691 11.278C13.9691 12.3714 13.0825 13.2579 11.9891 13.2579C10.8956 13.2579 10.0092 12.3714 10.0092 11.278C10.0092 10.1844 10.8956 9.29802 11.9891 9.29802Z" fill="white"/>
</svg>
