<svg width="23" height="23" viewBox="0 0 23 23" fill="none" xmlns="http://www.w3.org/2000/svg">
<path opacity="0.1" fill-rule="evenodd" clip-rule="evenodd" d="M0.0854492 11.2779C0.0854492 5.12706 5.0717 0.140808 11.2226 0.140808C17.3734 0.140808 22.3597 5.12706 22.3597 11.2779C22.3597 17.4288 17.3734 22.415 11.2226 22.415C5.0717 22.415 0.0854492 17.4288 0.0854492 11.2779Z" fill="white"/>
<path fill-rule="evenodd" clip-rule="evenodd" d="M15.8638 7.44925C16.3749 7.58951 16.7775 8.0028 16.9141 8.52764C17.1624 9.47885 17.1624 11.4636 17.1624 11.4636C17.1624 11.4636 17.1624 13.4482 16.9141 14.3995C16.7775 14.9243 16.3749 15.3376 15.8638 15.4779C14.9374 15.7328 11.2226 15.7328 11.2226 15.7328C11.2226 15.7328 7.5077 15.7328 6.5813 15.4779C6.07014 15.3376 5.66758 14.9243 5.53096 14.3995C5.28278 13.4482 5.28278 11.4636 5.28278 11.4636C5.28278 11.4636 5.28278 9.47885 5.53096 8.52764C5.66758 8.0028 6.07014 7.58951 6.5813 7.44925C7.5077 7.19434 11.2226 7.19434 11.2226 7.19434C11.2226 7.19434 14.9374 7.19434 15.8638 7.44925ZM10.1089 9.79296V13.5053L13.0788 11.6492L10.1089 9.79296Z" fill="white"/>
</svg>
