<svg width="105" height="213" viewBox="0 0 105 213" fill="none" xmlns="http://www.w3.org/2000/svg">
<path d="M87.7955 212.265L15.934 211.934C11.784 211.911 7.81282 210.242 4.89252 207.294C1.97222 204.345 0.341619 200.358 0.358839 196.208L1.12141 16.0614C1.12989 14.0053 1.54349 11.9711 2.33858 10.075C3.13367 8.17896 4.29466 6.45816 5.75517 5.01102C7.21567 3.56387 8.94707 2.41875 10.8504 1.64112C12.7537 0.863496 14.7916 0.468606 16.8476 0.479022L88.7019 0.809948C92.8519 0.830889 96.8238 2.49808 99.7455 5.44535C102.667 8.39263 104.3 12.379 104.284 16.529L103.522 196.668C103.513 198.725 103.1 200.76 102.305 202.657C101.51 204.554 100.349 206.275 98.8888 207.724C97.4285 209.172 95.6972 210.318 93.7938 211.098C91.8904 211.877 89.8522 212.274 87.7955 212.265Z" fill="#455A64"/>
</svg>
