<svg width="4" height="4" viewBox="0 0 4 4" fill="none" xmlns="http://www.w3.org/2000/svg">
<path d="M3.32847 2.12307C3.30863 2.41287 3.20405 2.69046 3.02774 2.92131C2.85143 3.15217 2.61117 3.32612 2.33681 3.42155C2.06244 3.51697 1.76609 3.52968 1.48458 3.45806C1.20306 3.38644 0.948781 3.23364 0.75338 3.0187C0.557979 2.80376 0.430057 2.53614 0.38551 2.24909C0.340962 1.96204 0.38177 1.66824 0.502835 1.40419C0.623899 1.14014 0.819885 0.917483 1.06645 0.763907C1.31302 0.610331 1.59928 0.532606 1.88966 0.540388C2.28849 0.564534 2.66212 0.743498 2.9309 1.03915C3.19967 1.3348 3.34233 1.72375 3.32847 2.12307Z" fill="#4CAF4F"/>
</svg>
