<svg width="75" height="14" viewBox="0 0 75 14" fill="none" xmlns="http://www.w3.org/2000/svg">
<path d="M73.5004 13.5418C73.6457 13.5271 73.7884 13.4932 73.9249 13.441C74.124 13.3632 74.2971 13.2308 74.4243 13.059C74.5516 12.8872 74.6278 12.683 74.6443 12.4698C74.6443 11.326 74.6443 9.65696 74.6443 7.51313C74.6443 6.44122 74.6443 5.23981 74.6443 3.9161C74.6443 3.59237 74.6443 3.25425 74.6443 2.91613C74.6911 2.58803 74.6197 2.25397 74.4428 1.97371C74.3438 1.83933 74.2149 1.72976 74.0664 1.65361C73.9178 1.57746 73.7536 1.53682 73.5867 1.53487H72.4645H62.069L1.8979 1.31185C1.74388 1.30924 1.59152 1.34384 1.45375 1.41272C1.31597 1.48161 1.19687 1.58275 1.10656 1.70753C0.932831 1.98893 0.866412 2.32354 0.919504 2.64995C0.919504 3.36936 0.919504 4.08876 0.919504 4.80817C0.919504 6.24698 0.919504 7.68579 0.919504 9.12461C0.919504 9.84401 0.919504 10.5634 0.919504 11.2828C0.88966 11.6179 0.88966 11.9549 0.919504 12.29C0.957297 12.4336 1.02754 12.5667 1.12482 12.6789C1.2221 12.7912 1.34382 12.8796 1.48064 12.9375C1.62239 12.9939 1.77417 13.0208 1.92668 13.0166H5.58845L21.5665 13.1029L48.6161 13.2684L66.8531 13.4123L71.8098 13.4698H73.0975C73.3925 13.4698 73.5364 13.4698 73.5364 13.4698H73.0975H71.8098H66.8531H48.6161L21.5665 13.3835L5.58845 13.3187H1.92668C1.72516 13.3269 1.52417 13.2926 1.33676 13.218C1.14733 13.1372 0.978871 13.0141 0.844222 12.8583C0.709572 12.7025 0.612289 12.5179 0.559801 12.3188C0.518156 12.13 0.503624 11.9362 0.516638 11.7432V11.2109C0.516638 10.4915 0.516638 9.77207 0.516638 9.05266C0.516638 7.61385 0.516638 6.17504 0.516638 4.73622C0.516638 4.01682 0.516638 3.29741 0.516638 2.57801C0.502918 2.38641 0.502918 2.19407 0.516638 2.00248C0.543595 1.79086 0.62544 1.58997 0.754043 1.41976C0.878147 1.24611 1.0424 1.10504 1.23281 1.00859C1.42321 0.912131 1.63412 0.863158 1.84754 0.865826L62.0187 1.19675L72.4141 1.26869H73.5364C73.7341 1.26884 73.9289 1.31665 74.1042 1.40807C74.2795 1.49949 74.4302 1.63182 74.5435 1.79386C74.7464 2.10663 74.8282 2.48261 74.7738 2.85138C74.7738 3.1895 74.7738 3.52762 74.7738 3.85136C74.7738 5.16068 74.7738 6.36209 74.7738 7.44839C74.7738 9.60661 74.7234 11.2612 74.709 12.4123C74.6914 12.6336 74.611 12.8453 74.4772 13.0224C74.3433 13.1996 74.1617 13.3348 73.9536 13.4123C73.8175 13.4966 73.6606 13.5415 73.5004 13.5418Z" fill="#E0E0E0"/>
</svg>
