<svg width="4" height="4" viewBox="0 0 4 4" fill="none" xmlns="http://www.w3.org/2000/svg">
<path d="M3.16323 2.07988C3.17738 2.2827 3.14966 2.48626 3.08178 2.6779C3.01389 2.86954 2.9073 3.04517 2.76864 3.19386C2.62997 3.34254 2.46219 3.4611 2.27574 3.54216C2.08929 3.62323 1.88816 3.66504 1.68485 3.66504C1.48154 3.66504 1.2804 3.62323 1.09395 3.54216C0.907497 3.4611 0.739733 3.34254 0.601067 3.19386C0.462401 3.04517 0.355814 2.86954 0.28793 2.6779C0.220045 2.48626 0.192322 2.2827 0.206478 2.07988C0.192322 1.87707 0.220045 1.6735 0.28793 1.48186C0.355814 1.29022 0.462401 1.11459 0.601067 0.965909C0.739733 0.817226 0.907497 0.698686 1.09395 0.617622C1.2804 0.536558 1.48154 0.49472 1.68485 0.49472C1.88816 0.49472 2.08929 0.536558 2.27574 0.617622C2.46219 0.698686 2.62997 0.817226 2.76864 0.965909C2.9073 1.11459 3.01389 1.29022 3.08178 1.48186C3.14966 1.6735 3.17738 1.87707 3.16323 2.07988Z" fill="#4CAF4F"/>
</svg>
