<svg width="95" height="199" viewBox="0 0 95 199" fill="none" xmlns="http://www.w3.org/2000/svg">
<path d="M83.594 1.00404H69.6663C69.2119 1.01246 68.7635 1.11033 68.3469 1.29206C67.9303 1.47378 67.5536 1.73581 67.2382 2.06316C66.9229 2.39051 66.6752 2.77677 66.5092 3.19989C66.3431 3.62301 66.2621 4.07469 66.2707 4.52913V7.05425C66.2793 7.50834 66.1982 7.95966 66.0321 8.38236C65.866 8.80507 65.6181 9.19086 65.3027 9.51764C64.9873 9.84442 64.6105 10.1058 64.1939 10.2867C63.7774 10.4677 63.3292 10.5647 62.8751 10.5721L35.7247 10.4498C34.8062 10.4254 33.935 10.0373 33.3024 9.371C32.6698 8.70466 32.3275 7.81449 32.3507 6.89598V4.37086C32.3739 3.45356 32.0326 2.56445 31.4015 1.89832C30.7705 1.23219 29.9011 0.843348 28.9839 0.81699H24.0847L11.8908 0.759441C8.99042 0.742173 6.20139 1.87487 4.13437 3.90953C2.06735 5.94419 0.89078 8.715 0.862284 11.6153L0.142878 187.453C0.136249 188.891 0.413085 190.317 0.957588 191.649C1.50209 192.981 2.3036 194.193 3.31634 195.215C4.32908 196.237 5.53321 197.049 6.86 197.606C8.18679 198.163 9.61024 198.453 11.0491 198.459L82.7595 198.79C84.1993 198.797 85.6263 198.52 86.959 197.975C88.2917 197.43 89.5041 196.628 90.5268 195.615C91.5496 194.601 92.3627 193.396 92.9198 192.069C93.4769 190.741 93.767 189.317 93.7736 187.877L94.493 12.0397C94.5102 9.13127 93.3718 6.33501 91.3281 4.26561C89.2843 2.19621 86.5024 1.02306 83.594 1.00404Z" fill="white"/>
</svg>
