<svg width="3" height="4" viewBox="0 0 3 4" fill="none" xmlns="http://www.w3.org/2000/svg">
<path d="M2.99083 2.0367C2.97098 2.3265 2.8664 2.60408 2.69009 2.83494C2.51378 3.0658 2.2735 3.23975 1.99914 3.33517C1.72478 3.4306 1.42844 3.44328 1.14692 3.37166C0.865405 3.30004 0.611136 3.14727 0.415735 2.93233C0.220335 2.71739 0.0924128 2.44976 0.0478652 2.16271C0.00331767 1.87567 0.0441149 1.58187 0.165179 1.31782C0.286244 1.05376 0.48224 0.83111 0.728807 0.677534C0.975374 0.523957 1.26163 0.446211 1.55201 0.453993C1.95085 0.478139 2.32448 0.657125 2.59325 0.952778C2.86203 1.24843 3.00469 1.63737 2.99083 2.0367Z" fill="#4CAF4F"/>
</svg>
