<svg width="4" height="4" viewBox="0 0 4 4" fill="none" xmlns="http://www.w3.org/2000/svg">
<path d="M3.82558 2.00073C3.80435 2.29011 3.69864 2.56688 3.52156 2.79674C3.34448 3.02659 3.10382 3.1994 2.82943 3.29374C2.55504 3.38809 2.25899 3.3998 1.978 3.32744C1.69702 3.25508 1.44345 3.10184 1.24875 2.88671C1.05406 2.67157 0.926806 2.40399 0.88277 2.1172C0.838733 1.83041 0.879848 1.53699 1.00103 1.27336C1.12221 1.00972 1.31812 0.787454 1.56446 0.634127C1.81079 0.4808 2.09671 0.403154 2.38677 0.410827C2.78689 0.434982 3.16162 0.614966 3.43059 0.912181C3.69957 1.2094 3.84136 1.60019 3.82558 2.00073Z" fill="#4CAF4F"/>
</svg>
