<svg width="41" height="4" viewBox="0 0 41 4" fill="none" xmlns="http://www.w3.org/2000/svg">
<g opacity="0.2">
<path d="M3.65315 1.95755C3.63192 2.24693 3.52622 2.5237 3.34914 2.75355C3.17206 2.98341 2.9314 3.15622 2.65701 3.25056C2.38262 3.3449 2.08657 3.35662 1.80558 3.28426C1.52459 3.2119 1.27102 3.05866 1.07633 2.84352C0.881633 2.62839 0.754382 2.36081 0.710346 2.07402C0.666309 1.78722 0.707424 1.49381 0.828604 1.23017C0.949784 0.966533 1.1457 0.744272 1.39203 0.590945C1.63837 0.437617 1.92429 0.359971 2.21434 0.367645C2.61513 0.389978 2.99097 0.569435 3.26032 0.867067C3.52967 1.1647 3.67082 1.55652 3.65315 1.95755Z" fill="white"/>
<path d="M8.23575 1.97917C8.2499 2.18198 8.22217 2.38552 8.15429 2.57716C8.0864 2.7688 7.97981 2.94443 7.84115 3.09312C7.70248 3.2418 7.53471 3.36036 7.34826 3.44143C7.16181 3.52249 6.96067 3.56433 6.75736 3.56433C6.55405 3.56433 6.35292 3.52249 6.16647 3.44143C5.98002 3.36036 5.81224 3.2418 5.67358 3.09312C5.53491 2.94443 5.42832 2.7688 5.36044 2.57716C5.29256 2.38552 5.26483 2.18198 5.27899 1.97917C5.26483 1.77635 5.29256 1.57279 5.36044 1.38115C5.42832 1.1895 5.53491 1.01387 5.67358 0.865192C5.81224 0.71651 5.98002 0.597947 6.16647 0.516883C6.35292 0.43582 6.55405 0.393982 6.75736 0.393982C6.96067 0.393982 7.16181 0.43582 7.34826 0.516883C7.53471 0.597947 7.70248 0.71651 7.84115 0.865192C7.97981 1.01387 8.0864 1.1895 8.15429 1.38115C8.22217 1.57279 8.2499 1.77635 8.23575 1.97917Z" fill="white"/>
<path d="M12.8256 2.0007C12.8043 2.29008 12.6986 2.56685 12.5216 2.79671C12.3445 3.02656 12.1038 3.19937 11.8294 3.29371C11.555 3.38805 11.259 3.39977 10.978 3.32741C10.697 3.25505 10.4434 3.10181 10.2488 2.88668C10.0541 2.67154 9.92681 2.40396 9.88277 2.11717C9.83873 1.83037 9.87985 1.53696 10.001 1.27332C10.1222 1.00969 10.3181 0.787424 10.5645 0.634096C10.8108 0.480769 11.0967 0.403123 11.3868 0.410797C11.7869 0.434951 12.1616 0.614936 12.4306 0.912151C12.6996 1.20937 12.8414 1.60016 12.8256 2.0007Z" fill="white"/>
<path d="M17.4082 2.02228C17.387 2.31165 17.2813 2.58843 17.1042 2.81828C16.9271 3.04814 16.6865 3.22095 16.4121 3.31529C16.1377 3.40963 15.8416 3.42135 15.5606 3.34899C15.2797 3.27663 15.0261 3.12339 14.8314 2.90825C14.6367 2.69311 14.5094 2.42556 14.4654 2.13877C14.4214 1.85197 14.4625 1.55854 14.5837 1.2949C14.7049 1.03126 14.9008 0.809 15.1471 0.655672C15.3934 0.502345 15.6794 0.424699 15.9694 0.432373C16.3695 0.456527 16.7443 0.636512 17.0132 0.933726C17.2822 1.23094 17.424 1.62173 17.4082 2.02228Z" fill="white"/>
<path d="M21.9908 2.0367C21.971 2.3265 21.8664 2.60408 21.6901 2.83494C21.5138 3.0658 21.2735 3.23975 20.9991 3.33517C20.7248 3.4306 20.4284 3.44328 20.1469 3.37166C19.8654 3.30004 19.6111 3.14727 19.4157 2.93233C19.2203 2.71739 19.0924 2.44976 19.0479 2.16271C19.0033 1.87567 19.0441 1.58187 19.1652 1.31782C19.2862 1.05376 19.4822 0.83111 19.7288 0.677534C19.9754 0.523957 20.2616 0.446211 20.552 0.453993C20.9508 0.478139 21.3245 0.657125 21.5933 0.952778C21.862 1.24843 22.0047 1.63737 21.9908 2.0367Z" fill="white"/>
<path d="M26.5806 2.05826C26.561 2.34657 26.4574 2.62284 26.2828 2.85308C26.1082 3.08333 25.8701 3.25752 25.5977 3.35417C25.3254 3.45083 25.0308 3.46575 24.75 3.39712C24.4693 3.32848 24.2148 3.17926 24.0178 2.96784C23.8208 2.75642 23.6899 2.49203 23.6412 2.20718C23.5926 1.92233 23.6282 1.62947 23.7438 1.36463C23.8595 1.09979 24.05 0.874515 24.292 0.716555C24.5339 0.558595 24.8168 0.474826 25.1058 0.47556C25.511 0.490561 25.8937 0.66557 26.1702 0.962226C26.4466 1.25888 26.5942 1.65301 26.5806 2.05826Z" fill="white"/>
<path d="M31.1632 2.07982C31.1774 2.28264 31.1497 2.4862 31.0818 2.67784C31.0139 2.86948 30.9073 3.04511 30.7686 3.19379C30.63 3.34248 30.4622 3.46104 30.2757 3.5421C30.0893 3.62317 29.8882 3.66498 29.6849 3.66498C29.4815 3.66498 29.2804 3.62317 29.0939 3.5421C28.9075 3.46104 28.7397 3.34248 28.6011 3.19379C28.4624 3.04511 28.3558 2.86948 28.2879 2.67784C28.22 2.4862 28.1923 2.28264 28.2065 2.07982C28.1923 1.877 28.22 1.67344 28.2879 1.4818C28.3558 1.29016 28.4624 1.11453 28.6011 0.965848C28.7397 0.817165 28.9075 0.698625 29.0939 0.617561C29.2804 0.536497 29.4815 0.494659 29.6849 0.494659C29.8882 0.494659 30.0893 0.536497 30.2757 0.617561C30.4622 0.698625 30.63 0.817165 30.7686 0.965848C30.9073 1.11453 31.0139 1.29016 31.0818 1.4818C31.1497 1.67344 31.1774 1.877 31.1632 2.07982Z" fill="white"/>
<path d="M35.7459 2.10142C35.7262 2.38973 35.6227 2.66602 35.4481 2.89627C35.2735 3.12651 35.0353 3.30068 34.763 3.39733C34.4907 3.49399 34.196 3.50891 33.9153 3.44028C33.6346 3.37164 33.3801 3.22242 33.1831 3.011C32.9861 2.79958 32.8552 2.53519 32.8065 2.25034C32.7578 1.96549 32.7935 1.67263 32.9091 1.40779C33.0247 1.14295 33.2152 0.917676 33.4572 0.759716C33.6992 0.601755 33.9821 0.518008 34.2711 0.518743C34.6763 0.533744 35.059 0.708731 35.3355 1.00539C35.6119 1.30204 35.7595 1.69617 35.7459 2.10142Z" fill="white"/>
<path d="M40.3285 2.12301C40.3086 2.41281 40.204 2.69039 40.0277 2.92125C39.8514 3.15211 39.6112 3.32606 39.3368 3.42149C39.0624 3.51691 38.7661 3.52962 38.4846 3.458C38.2031 3.38637 37.9488 3.23358 37.7534 3.01864C37.558 2.8037 37.4301 2.53607 37.3855 2.24903C37.341 1.96198 37.3818 1.66818 37.5028 1.40413C37.6239 1.14007 37.8199 0.917422 38.0665 0.763846C38.313 0.61027 38.5993 0.532545 38.8897 0.540327C39.2885 0.564473 39.6621 0.743437 39.9309 1.03909C40.1997 1.33474 40.3423 1.72368 40.3285 2.12301Z" fill="white"/>
</g>
</svg>
