<svg width="34" height="35" viewBox="0 0 34 35" fill="none" xmlns="http://www.w3.org/2000/svg">
<rect x="-0.00732422" y="0.919416" width="33.4113" height="33.4113" rx="5.56856" fill="#F5F7FA"/>
<g clip-path="url(#clip0_4_904)">
<path d="M30.6173 10.2547C30.6173 10.2783 30.6173 10.3077 30.6112 10.3253C30.5805 10.5548 30.5805 10.7843 30.5989 11.0197C30.6112 11.0785 30.6234 11.1373 30.6725 11.1844C30.7522 11.2727 30.8748 11.255 30.9238 11.1491C30.9484 11.0962 30.9484 11.0432 30.9361 10.9902C30.8748 10.7666 30.8625 10.5313 30.8564 10.3018C30.8564 10.29 30.8564 10.2724 30.8564 10.2547C30.9238 10.2488 30.9852 10.2429 31.0403 10.2429C31.0833 10.2371 31.12 10.2312 31.1507 10.2135C31.2426 10.1665 31.2426 10.0664 31.1445 10.0193C31.1078 10.0017 31.0587 9.99581 31.0158 9.99581C30.8625 10.0017 30.7093 10.0017 30.556 10.0017C30.5008 10.0017 30.4456 10.0076 30.3904 10.0135C30.3598 10.0193 30.323 10.0193 30.2985 10.037C30.2556 10.0546 30.2311 10.0841 30.2311 10.1253C30.2372 10.1665 30.2556 10.19 30.2985 10.2076C30.323 10.2253 30.3537 10.2312 30.3843 10.2312C30.4579 10.2371 30.5376 10.2488 30.6173 10.2547ZM32.3033 10.5254C32.3033 10.5313 32.3094 10.5372 32.3094 10.5372C32.3339 10.696 32.3585 10.849 32.3768 11.002C32.383 11.055 32.3891 11.102 32.4259 11.1432C32.5056 11.2433 32.6282 11.2315 32.6834 11.1256C32.7079 11.0726 32.714 11.0197 32.7018 10.9608C32.665 10.7843 32.6466 10.6078 32.6098 10.4371C32.5853 10.3312 32.5547 10.2312 32.524 10.137C32.5056 10.0782 32.4627 10.037 32.3891 10.0311C32.3156 10.0193 32.2604 10.0546 32.2297 10.1076C32.1929 10.1547 32.1623 10.2018 32.1377 10.2547C32.0948 10.3489 32.058 10.443 32.009 10.5313C32.0028 10.5548 31.9967 10.5725 31.9845 10.5901C31.9784 10.5783 31.9722 10.5725 31.9722 10.5725C31.8925 10.4254 31.8189 10.2783 31.7393 10.137C31.727 10.1253 31.7208 10.1135 31.7147 10.1017C31.6779 10.0488 31.635 10.0193 31.5676 10.0193C31.5063 10.0252 31.4572 10.0605 31.4266 10.1135C31.4143 10.137 31.4143 10.1547 31.4082 10.1782C31.3836 10.3665 31.353 10.5548 31.3285 10.7431C31.3162 10.849 31.3101 10.9549 31.3101 11.0608C31.304 11.0844 31.3101 11.1138 31.3223 11.1373C31.3346 11.1844 31.3714 11.2138 31.4204 11.2197C31.4817 11.2256 31.5246 11.208 31.5431 11.1609C31.5614 11.1256 31.5676 11.0962 31.5737 11.0667C31.5982 10.9608 31.6166 10.8608 31.635 10.7608C31.6473 10.7019 31.6534 10.6548 31.6718 10.5901C31.6841 10.6137 31.6963 10.6313 31.7086 10.649C31.7637 10.7196 31.8189 10.7902 31.8864 10.849C31.9538 10.8961 32.009 10.8902 32.0642 10.8372C32.0765 10.8255 32.0826 10.8196 32.0948 10.8078C32.15 10.7254 32.2175 10.6431 32.2726 10.5607C32.2849 10.5489 32.291 10.5372 32.3033 10.5254Z" fill="#3A3B7B"/>
<path d="M18.1771 10.3703C18.1345 10.4822 18.1264 10.5627 18.146 10.6297C18.1678 10.7207 18.2242 10.7506 18.3007 10.7274C19.0208 10.5565 20.5999 11.0416 21.1845 11.1768C21.3224 11.2052 21.4346 11.0344 21.3405 10.8812C21.2032 10.7329 19.6248 10.0979 19.0226 10.0632C18.7865 10.0504 18.3645 9.99234 18.1771 10.3703Z" fill="#3A3B7B"/>
<path d="M24.3484 8.31466C24.4252 8.35718 24.4681 8.39773 24.4892 8.44305C24.5208 8.50249 24.5041 8.54361 24.4511 8.56459C23.9751 8.78757 23.3417 9.74751 23.086 10.0786C23.0241 10.1547 22.8811 10.1105 22.8595 9.98524C22.8639 9.84363 23.4254 8.80188 23.7388 8.51814C23.8619 8.40736 24.0654 8.19 24.3484 8.31466Z" fill="#3A3B7B"/>
<path d="M20.5576 7.84216C20.6498 7.77546 20.7456 7.75209 20.7946 7.79543C21.5128 8.38493 21.8936 9.31846 22.1294 10.1731C22.1383 10.193 22.1389 10.2216 22.1318 10.2514C22.1288 10.2768 22.1094 10.3038 22.0786 10.3246C22.0457 10.3476 22.0174 10.3546 22.0041 10.3348C21.6893 9.92385 19.8915 8.32507 20.5576 7.84216Z" fill="#3A3B7B"/>
<path d="M5.3491 18.0626C5.52123 17.9396 5.70836 17.8372 5.90638 17.7577C6.11356 17.7009 6.33439 17.7103 6.5355 17.7846C6.73655 17.8589 6.907 17.9941 7.02094 18.1696C7.12287 18.3446 7.16274 18.5468 7.13461 18.7455C7.10647 18.9442 7.01183 19.1288 6.86489 19.2714C6.751 19.387 6.62168 19.4877 6.48039 19.5709C5.85067 19.9614 5.21534 20.3304 4.58004 20.7209C4.45005 20.8186 4.31214 20.9063 4.16765 20.983C3.94786 21.0882 3.69668 21.1164 3.45754 21.0626C3.2184 21.009 3.00634 20.8767 2.85803 20.6888C2.74716 20.5558 2.65359 20.4103 2.57938 20.2556C1.97752 19.0414 1.35336 17.8326 0.773781 16.597C0.506282 16.0622 0.288942 15.4471 0.0771737 14.8534C-0.0144471 14.6809 -0.0323386 14.4809 0.0273089 14.2959C0.0869565 14.111 0.219437 13.9556 0.39657 13.8629C0.573704 13.7703 0.781511 13.7476 0.975802 13.7997C1.17009 13.8518 1.33554 13.9747 1.43695 14.142C1.74865 14.5396 2.02458 14.9619 2.26173 15.4043C2.8636 16.474 3.43761 17.5438 4.01718 18.5814C4.05093 18.6388 4.08814 18.6941 4.12864 18.7472C4.56487 18.5712 4.97516 18.341 5.3491 18.0626Z" fill="#3A3B7B"/>
<path d="M11.572 17.6894C10.1955 19.2352 7.88834 18.8447 6.72919 16.855C5.9044 15.4429 5.75951 13.1109 7.55399 11.64C7.93718 11.3321 8.39538 11.1223 8.88588 11.0303C9.48728 10.9475 10.1005 11.0493 10.638 11.3212C11.1755 11.5931 11.6097 12.021 11.8785 12.5439C12.8593 14.2555 12.72 16.4378 11.572 17.6894ZM11.0147 14.0844C10.8685 13.6638 10.5751 13.3047 10.1843 13.0681C9.96324 12.9168 9.69455 12.8433 9.42358 12.8599C9.15255 12.8764 8.89579 12.9821 8.69641 13.159C7.89951 13.8383 7.73229 15.4483 8.31187 16.4057C8.38575 16.5618 8.49423 16.7006 8.62981 16.8122C8.76539 16.9239 8.92476 17.0058 9.09675 17.0521C9.26874 17.0985 9.44919 17.1082 9.62552 17.0807C9.80186 17.053 9.96973 16.9888 10.1175 16.8924C10.5495 16.571 10.8664 16.1283 11.0242 15.6261C11.182 15.1238 11.1729 14.5868 10.998 14.0897L11.0147 14.0844Z" fill="#3A3B7B"/>
<path d="M17.1895 14.7583C17.0485 14.7874 16.903 14.7892 16.7613 14.7634C16.6197 14.7377 16.4848 14.6851 16.3647 14.6086C16.2596 14.5509 16.1691 14.4716 16.0998 14.3763C16.0304 14.281 15.984 14.1722 15.9638 14.0576C15.9435 13.943 15.95 13.8256 15.9826 13.7137C16.0153 13.6018 16.0735 13.4982 16.1529 13.4105C16.2913 13.2341 16.4877 13.1079 16.7102 13.0521C17.2913 12.8903 17.8895 12.7916 18.4935 12.758C18.6263 12.7431 18.7607 12.7539 18.889 12.7897C19.0173 12.8254 19.1369 12.8854 19.2407 12.9661C19.3445 13.0468 19.4305 13.1467 19.4936 13.2597C19.5567 13.3728 19.5956 13.4968 19.6081 13.6244C19.7822 14.2516 19.8013 14.9091 19.6638 15.5446C19.1623 17.5985 17.4347 18.3045 15.4953 17.6466C14.9509 17.4708 14.4736 17.143 14.1244 16.7053C13.6586 16.1782 13.3284 15.5534 13.1603 14.8814C13.0241 14.2829 13.039 13.6619 13.2038 13.0702C13.3686 12.4784 13.6785 11.933 14.1077 11.4796C14.5149 10.9868 15.0435 10.599 15.6458 10.351C16.0264 10.1497 16.4717 10.0925 16.8941 10.1906C16.9899 10.216 17.0769 10.2656 17.146 10.3342C17.2152 10.4028 17.2639 10.4879 17.2872 10.5807C17.3105 10.6734 17.3076 10.7705 17.2786 10.8618C17.2496 10.9531 17.1958 11.0353 17.1226 11.0999C16.9834 11.2208 16.8322 11.3283 16.6712 11.4208C16.1757 11.7236 15.7446 12.1138 15.4006 12.5707C15.1751 12.8664 15.0198 13.206 14.9457 13.5654C14.8715 13.9248 14.8803 14.2955 14.9715 14.6514C15.0979 15.1366 15.3783 15.5721 15.774 15.8976C17 16.9674 18.5938 15.9351 18.3152 14.4749C17.9084 14.5712 17.5517 14.6728 17.1895 14.7583Z" fill="#3A3B7B"/>
<path d="M24.6794 17.775C22.8683 18.8448 20.8063 17.775 20.3549 15.5286C20.0261 13.924 20.6503 11.6775 22.8349 10.8217C23.2996 10.6436 23.8038 10.581 24.3005 10.6399C24.8973 10.7447 25.4447 11.0267 25.8656 11.446C26.2865 11.8654 26.5598 12.4009 26.6467 12.9773C27.0145 14.8867 26.1785 16.9246 24.6794 17.775ZM25.3092 14.1753C25.3086 13.731 25.1449 13.3011 24.8467 12.9612C24.6872 12.751 24.4568 12.6004 24.1946 12.535C23.9324 12.4697 23.6547 12.4936 23.4088 12.6028C22.428 13.0093 21.737 14.4856 21.9878 15.5714C22.0069 15.7418 22.0646 15.9061 22.1568 16.0529C22.249 16.1996 22.3735 16.3253 22.5216 16.4211C22.6697 16.5168 22.8378 16.5804 23.0141 16.6073C23.1905 16.6342 23.3709 16.6239 23.5426 16.5769C24.061 16.4031 24.5099 16.0782 24.8266 15.6477C25.1433 15.2171 25.3121 14.7024 25.3092 14.1753Z" fill="#3A3B7B"/>
<path d="M28.4783 18.2243C28.451 18.4201 28.3438 18.5974 28.1802 18.7173C28.0166 18.8371 27.8101 18.8897 27.6062 18.8635C27.4022 18.8372 27.2175 18.7343 27.0926 18.5773C26.9677 18.4203 26.9129 18.2221 26.9402 18.0264C26.9676 17.8306 27.0748 17.6533 27.2384 17.5334C27.4019 17.4136 27.6084 17.361 27.8124 17.3872C28.0163 17.4135 28.2011 17.5164 28.326 17.6734C28.4509 17.8304 28.5057 18.0285 28.4783 18.2243ZM27.9935 11.0089C28.0995 10.8535 28.255 10.7352 28.4368 10.6716C28.6185 10.608 28.8169 10.6025 29.0022 10.6559C29.1906 10.7011 29.357 10.8071 29.4737 10.9561C29.5904 11.1051 29.6501 11.288 29.6431 11.4742C29.6185 11.773 29.5719 12.0697 29.5038 12.3621C29.3198 13.3516 29.1415 14.3411 28.9465 15.3199C28.8573 15.7104 28.7403 16.0848 28.6121 16.4806C28.5675 16.6043 28.493 16.7161 28.3948 16.8069C28.3337 16.8751 28.2557 16.9275 28.1679 16.9591C28.0801 16.9908 27.9855 17.0006 27.8927 16.9878C27.7999 16.975 27.712 16.94 27.6371 16.8859C27.5621 16.8318 27.5027 16.7605 27.4641 16.6785C27.3978 16.5314 27.3618 16.3734 27.3582 16.2132C27.3582 15.5499 27.3582 14.8814 27.4028 14.2127C27.4785 13.2586 27.6275 12.3111 27.8486 11.3779C27.8746 11.2529 27.9237 11.1334 27.9935 11.0249V11.0089Z" fill="#3A3B7B"/>
<path fill-rule="evenodd" clip-rule="evenodd" d="M2.99459 22.5224C2.92879 22.6634 2.91074 22.8206 2.9429 22.9718C2.96429 23.1712 3.01127 23.3673 3.08278 23.5557C3.17205 23.7864 3.27195 24.0145 3.39513 24.2956C3.42346 24.3603 3.45306 24.4278 3.48403 24.4989C3.65014 24.8798 3.85857 25.3665 4.13658 26.071C4.21527 26.2711 4.28514 26.4729 4.35551 26.676C4.38393 26.7581 4.41246 26.8404 4.44166 26.923C4.54633 27.2164 4.72643 27.48 4.96516 27.6889C5.06653 27.8038 5.20099 27.8874 5.35176 27.9293C5.50548 27.9719 5.66896 27.9692 5.82104 27.9215C5.97312 27.8738 6.10669 27.7832 6.20442 27.6616C6.30023 27.5424 6.3572 27.3987 6.36827 27.2486C6.43043 26.9561 6.40921 26.6529 6.30677 26.371C6.14417 25.9029 5.95896 25.4342 5.74537 24.9757L5.74439 24.9736C5.39303 24.2563 5.03587 23.5439 4.66182 22.8313L4.65902 22.8263C4.54952 22.6406 4.40721 22.4746 4.23849 22.3358C4.12896 22.2119 3.97788 22.1283 3.81103 22.0995C3.64062 22.0701 3.46488 22.0997 3.31516 22.1831C3.17353 22.2608 3.06126 22.3795 2.99459 22.5224Z" fill="#3A3B7B"/>
<path fill-rule="evenodd" clip-rule="evenodd" d="M8.36111 20.756C7.81018 20.6191 7.23481 20.5991 6.6751 20.6976C6.24158 20.7386 5.8152 20.8345 5.51913 21.0247C5.36855 21.1214 5.2468 21.2457 5.17908 21.4036C5.11098 21.5623 5.10229 21.7439 5.15809 21.9462C5.25998 22.3168 5.39229 22.6772 5.52413 23.0363L5.54549 23.0945L5.546 23.0958C5.94298 24.1392 6.34374 25.1791 6.74815 26.2154C6.79531 26.3788 6.862 26.5363 6.94687 26.6849L6.94846 26.6877C7.06058 26.8723 7.20439 27.0374 7.37381 27.1761C7.45854 27.2523 7.56332 27.3051 7.67694 27.3287C7.79167 27.3524 7.91099 27.3455 8.0219 27.3087C8.13285 27.2718 8.23109 27.2064 8.30596 27.1196C8.37961 27.0343 8.42784 26.9314 8.44556 26.8219C8.51865 26.5246 8.49524 26.2128 8.3784 25.9286C8.34194 25.8329 8.31334 25.7352 8.2832 25.6323C8.27315 25.5979 8.26296 25.563 8.25221 25.5275C9.17791 25.1802 10.1629 24.7132 10.5092 23.6268C10.6449 23.2514 10.6562 22.8449 10.5416 22.463C10.4269 22.0807 10.1916 21.7419 9.86806 21.4931C9.42776 21.1449 8.91343 20.8933 8.36111 20.756ZM6.834 22.0886C6.85223 22.0835 6.8706 22.0788 6.88901 22.0745C7.49167 21.9835 8.10826 22.1047 8.62526 22.4156C8.8531 22.5677 8.94643 22.7366 8.96246 22.8992C8.979 23.0666 8.91558 23.248 8.78818 23.4224C8.54744 23.7518 8.10812 24.0154 7.71129 24.0646C7.42199 23.4251 7.12821 22.7598 6.834 22.0886Z" fill="#3A3B7B"/>
<path d="M12.034 19.5856C12.6901 19.2948 13.5028 19.2446 14.1388 19.4491C14.2989 19.4938 14.4379 19.5907 14.5319 19.723C14.6252 19.8546 14.6683 20.0131 14.6539 20.1715C14.653 20.2744 14.6267 20.3756 14.5772 20.4669C14.5268 20.5598 14.4539 20.6398 14.3645 20.7C14.2751 20.7601 14.172 20.7988 14.0638 20.8126C13.9556 20.8264 13.8455 20.8151 13.7428 20.7794L13.735 20.7767L13.7277 20.773C13.6751 20.7466 13.6193 20.7268 13.5616 20.7138L13.558 20.713C13.1106 20.599 12.6886 20.788 12.5345 21.0201C12.461 21.1308 12.4519 21.2426 12.5131 21.3443C12.5787 21.4531 12.7395 21.5753 13.0649 21.6624C13.1544 21.686 13.2461 21.7087 13.3392 21.7318C13.5965 21.7958 13.8639 21.8622 14.1225 21.9543L14.1235 21.9547C15.3165 22.3903 15.7607 23.2926 15.6087 24.1412C15.4582 24.9804 14.728 25.7442 13.6298 25.9244C13.2302 26.0094 12.8143 25.9928 12.4234 25.8763C12.0315 25.7595 11.6782 25.5463 11.3987 25.2578L11.3914 25.2503C11.3031 25.1416 11.2438 25.0139 11.2175 24.8785C11.1933 24.7562 11.206 24.6299 11.2542 24.5143C11.302 24.3994 11.383 24.3 11.4874 24.2276C11.5978 24.1454 11.7308 24.0962 11.87 24.0859C12.0088 24.0757 12.1476 24.1046 12.2695 24.1691C12.3912 24.2255 12.5043 24.2975 12.606 24.3831L12.6079 24.3847C12.7876 24.5425 13.0051 24.5836 13.2136 24.5455C13.4252 24.5069 13.6241 24.3867 13.7521 24.2273C13.8792 24.0689 13.9303 23.8807 13.8697 23.698C13.8088 23.514 13.6255 23.3078 13.2229 23.1354C13.1176 23.0926 13.0085 23.058 12.895 23.0243C12.8644 23.0152 12.8332 23.0062 12.8017 22.997C12.7178 22.9725 12.6314 22.9473 12.5467 22.9196C12.4884 22.9005 12.4306 22.8824 12.3733 22.8645C12.2166 22.8155 12.064 22.7678 11.917 22.7038C11.5972 22.5993 11.3209 22.3987 11.1292 22.1315C10.9368 21.8633 10.8399 21.5426 10.8531 21.2172C10.8541 20.4243 11.3745 19.8781 12.034 19.5856Z" fill="#3A3B7B"/>
<path d="M20.3518 19.5011C20.2246 19.4415 20.0839 19.4132 19.9425 19.4188C19.801 19.4243 19.6633 19.4636 19.5416 19.5331C19.4207 19.6021 19.3195 19.6987 19.2469 19.8144C19.1804 19.9118 19.1344 20.0207 19.1115 20.1351C19.0885 20.2494 19.0891 20.3668 19.113 20.4808C19.1367 20.6273 19.163 20.7698 19.1889 20.9104C19.2319 21.1429 19.2737 21.3702 19.3013 21.602L19.3023 21.6079C19.365 21.9714 19.3979 22.339 19.4008 22.7074L19.4011 22.7126C19.4226 23.1105 19.2813 23.5005 19.0077 23.8001L19.0034 23.8054C18.9143 23.915 18.7953 23.9985 18.6595 24.0469C18.5238 24.0952 18.3768 24.1063 18.2348 24.0789C18.0929 24.0516 17.9617 23.9869 17.8559 23.8921C17.7501 23.7972 17.6738 23.6757 17.6357 23.5417C17.5543 23.2592 17.5073 22.9686 17.4953 22.6759L17.6342 20.5534C17.6363 20.5257 17.6386 20.4973 17.641 20.4686C17.6463 20.4041 17.6517 20.3385 17.6539 20.2772C17.6572 20.1871 17.6544 20.0944 17.6325 20.0067C17.6102 19.9171 17.5676 19.8318 17.4921 19.7592C17.4173 19.6873 17.3163 19.6342 17.1893 19.5981C16.9596 19.5343 16.7654 19.5363 16.6035 19.6023C16.4416 19.6682 16.3306 19.7906 16.2521 19.932C16.1742 20.0722 16.1241 20.2382 16.0863 20.4044C16.0582 20.5278 16.0356 20.6573 16.0142 20.7806C16.0067 20.8231 15.9995 20.8648 15.9922 20.9053L15.992 20.9065C15.8772 21.5825 15.843 22.2689 15.8901 22.9524C15.8989 23.3218 15.9792 23.6864 16.1268 24.0275C16.2935 24.4678 16.5952 24.8492 16.9923 25.1215C17.3903 25.3943 17.8652 25.5447 18.3541 25.5526C18.8431 25.5605 19.323 25.4257 19.7304 25.166C20.1371 24.9066 20.4523 24.5349 20.6343 24.1001C20.8888 23.5461 21.0084 22.9436 20.9837 22.3386C20.9687 21.8969 20.9437 21.4518 20.9188 21.009C20.9065 20.7917 20.8943 20.575 20.8834 20.3595C20.8779 20.1435 20.8037 19.9342 20.6707 19.7598C20.5884 19.6496 20.4788 19.5607 20.3518 19.5011Z" fill="#3A3B7B"/>
<path d="M24.8545 22.8291C24.8416 22.8449 24.828 22.8611 24.8138 22.8781C24.7103 22.3052 24.6144 21.7324 24.5183 21.1588C24.4839 20.953 24.4493 20.7463 24.4144 20.5403L24.4105 20.5173L24.3978 20.4974C24.3738 20.46 24.3714 20.4234 24.3714 20.3452V20.3361L24.37 20.3272C24.344 20.1658 24.2679 20.0155 24.1517 19.8961C24.0358 19.7771 23.8852 19.6942 23.7197 19.6583C23.5544 19.6191 23.3806 19.6278 23.2204 19.6831C23.0605 19.7383 22.9212 19.8375 22.8198 19.9682C22.7355 20.0685 22.6664 20.1798 22.6146 20.2988C22.497 20.5549 22.3785 20.8118 22.2596 21.0693L22.2575 21.0737C21.9607 21.7166 21.6619 22.3638 21.3717 23.0161L21.3708 23.0182C21.1927 23.4411 21.0457 23.8868 20.8992 24.3311C20.8699 24.4197 20.8407 24.5084 20.8112 24.5968C20.7583 24.737 20.7351 24.8859 20.7431 25.0348C20.7335 25.168 20.7667 25.301 20.8384 25.4156C20.9115 25.5326 21.021 25.6247 21.1514 25.6788C21.2897 25.737 21.4442 25.7494 21.5906 25.7139C21.7367 25.6786 21.8665 25.5976 21.9594 25.4839C22.0781 25.3437 22.1803 25.1908 22.2635 25.0289C22.5093 24.5464 22.7442 24.0579 22.978 23.5716C23.0685 23.3835 23.1564 23.2151 23.2565 23.0316C23.2633 23.0542 23.2703 23.0763 23.2776 23.0984C23.3824 23.5414 23.5594 23.9656 23.8019 24.3557C23.8478 24.4383 23.9117 24.5105 23.9893 24.5674C24.0678 24.6249 24.1584 24.6653 24.2548 24.6858C24.3513 24.7063 24.4512 24.7064 24.5476 24.6861C24.644 24.6658 24.7349 24.6254 24.8134 24.5681L24.9689 24.4564L26.1758 23.4807L26.1044 23.9172C26.0065 24.5173 25.9092 25.1123 25.806 25.7075C25.7384 25.9713 25.7385 26.2468 25.8062 26.5105C25.8356 26.6589 25.9104 26.7955 26.021 26.903C26.1326 27.0113 26.2756 27.0849 26.4313 27.1142C26.587 27.1436 26.7483 27.1273 26.8943 27.0675C27.0382 27.0087 27.1605 26.9102 27.246 26.7848C27.445 26.5478 27.5689 26.2609 27.6029 25.9583C27.6541 25.5309 27.712 25.0977 27.7699 24.6646C27.8366 24.1654 27.9033 23.6663 27.9596 23.1769L27.9598 23.1754C28.014 22.6396 28.0402 22.1016 28.0384 21.5632C28.0503 21.3931 28.0062 21.2236 27.9121 21.0788C27.8178 20.9335 27.678 20.8205 27.5129 20.7558C27.3411 20.6809 27.1487 20.6608 26.9642 20.6987C26.7808 20.7363 26.6149 20.8291 26.4904 20.9635C26.2678 21.1611 26.0589 21.3725 25.8652 21.5964L25.8639 21.598C25.6524 21.8509 25.4424 22.1088 25.2337 22.365C25.1068 22.5207 24.9803 22.6761 24.8545 22.8291Z" fill="#3A3B7B"/>
</g>
<defs>
<clipPath id="clip0_4_904">
<rect width="32.7153" height="20.186" fill="white" transform="translate(-0.00732422 7.77346)"/>
</clipPath>
</defs>
</svg>
