<svg width="61" height="73" viewBox="0 0 61 73" fill="none" xmlns="http://www.w3.org/2000/svg">
<path d="M42.6722 15.7528L38.9673 17.0765L37.3774 12.2349C34.4566 3.30711 25.1475 -1.43377 16.5937 1.58054C8.04 4.59485 3.48616 14.386 6.40695 23.3138L7.99683 28.1554L4.27751 29.4863C2.85927 30.0364 1.70755 31.1119 1.06177 32.4892C0.415984 33.8665 0.3258 35.4397 0.809971 36.8818L11.1191 68.3846C11.3331 69.0985 11.6884 69.7621 12.1639 70.3359C12.6394 70.9098 13.2254 71.3822 13.8871 71.7251C14.5488 72.0681 15.2726 72.2745 16.0157 72.3321C16.7587 72.3898 17.5057 72.2975 18.2124 72.0608L56.6071 58.3273C58.0441 57.7782 59.2121 56.6932 59.8655 55.3005C60.5189 53.9078 60.6068 52.316 60.1106 50.8599L49.7943 19.3571C49.5748 18.6452 49.2141 17.9848 48.7337 17.4154C48.2534 16.8459 47.6633 16.3791 46.9986 16.0427C46.3339 15.7063 45.6082 15.5073 44.8649 15.4575C44.1216 15.4077 43.3759 15.5081 42.6722 15.7528ZM13.4068 20.7887C12.6192 18.4673 12.7606 15.9312 13.8013 13.7118C14.8419 11.4923 16.7011 9.76171 18.9894 8.88251C20.1193 8.49592 21.3155 8.3409 22.5066 8.42669C23.6977 8.51247 24.8593 8.83732 25.9222 9.38183C26.985 9.92634 27.9273 10.6794 28.6928 11.596C29.4583 12.5126 30.0312 13.574 30.3776 14.7169L31.9603 19.5585L14.9895 25.6303L13.4068 20.7887ZM34.9889 48.7448L37.622 56.7878C37.6703 56.949 37.6547 57.1227 37.5784 57.2728C37.502 57.4228 37.3708 57.5377 37.2119 57.5935L33.5214 58.91C33.3745 58.9507 33.2176 58.933 33.0834 58.8606C32.9493 58.7882 32.8485 58.6667 32.802 58.5215L30.1474 50.5145C28.6836 50.4348 27.2791 49.9098 26.122 49.0098C24.9649 48.1098 24.1103 46.8778 23.6727 45.4787C23.047 43.6291 23.1611 41.6091 23.9912 39.8417C24.8213 38.0743 26.3029 36.6966 28.1258 35.9969C29.0259 35.6894 29.9787 35.5662 30.9274 35.6348C31.876 35.7033 32.8012 35.9621 33.6478 36.3958C34.4943 36.8294 35.2449 37.4291 35.8547 38.159C36.4646 38.8889 36.9213 39.7341 37.1975 40.6443C37.6604 42.0655 37.6987 43.5909 37.3077 45.0335C36.9167 46.4762 36.1133 47.7734 34.9961 48.7664L34.9889 48.7448Z" fill="#4CAF4F"/>
<path d="M38.8018 16.9902C38.8018 17.0909 31.9315 19.6736 23.385 22.7455C14.8384 25.8173 7.86735 28.2849 7.83138 28.213C7.79541 28.141 14.7017 25.5368 23.2554 22.4577C31.8092 19.3787 38.7659 16.8967 38.8018 16.9902Z" fill="#263238"/>
<path d="M46.9599 18.3139C46.9916 18.3763 47.0181 18.4413 47.039 18.5081C47.0965 18.652 47.1613 18.8391 47.2476 19.0693C47.4347 19.5944 47.6937 20.321 48.0174 21.2275L50.7799 29.2705C51.931 32.6804 53.305 36.7235 54.8302 41.2126C55.5496 43.4643 56.3985 45.8096 57.1898 48.2772C57.6134 49.5488 57.7964 50.8881 57.7294 52.2267C57.6684 52.9229 57.4703 53.6001 57.1467 54.2195C56.8009 54.8368 56.3392 55.3815 55.787 55.8237C54.6755 56.6351 53.4419 57.264 52.1324 57.687L48.4275 59.0179L41.4133 61.5286L29.5358 65.7587L21.5145 68.5788L19.3563 69.2982L18.7807 69.4853C18.7192 69.5126 18.6536 69.5297 18.5865 69.5356C18.5865 69.5356 18.644 69.5356 18.7663 69.4493L19.3275 69.2263L21.4857 68.4134L29.4639 65.4782L41.3197 61.1617L48.3196 58.6294L52.0245 57.2913C53.2967 56.8856 54.4946 56.2757 55.5712 55.4856C56.085 55.0752 56.5149 54.5696 56.8373 53.9964C57.142 53.4236 57.3256 52.7943 57.3769 52.1476C57.4431 50.8578 57.2674 49.5671 56.8589 48.3419C56.0819 45.8959 55.2618 43.5291 54.5208 41.2774C53.0245 36.7811 51.6432 32.7236 50.5497 29.3136C49.4562 25.9036 48.5354 23.1627 47.9023 21.2347C47.6001 20.2923 47.3699 19.5585 47.1829 19.0261L47.0102 18.4506C46.9885 18.407 46.9716 18.3612 46.9599 18.3139Z" fill="#263238"/>
<path d="M26.7015 8.39333C26.7015 8.39333 26.3202 8.20628 25.6152 7.91852C24.6102 7.53239 23.5474 7.31837 22.4714 7.28544C20.8764 7.23075 19.2892 7.53051 17.824 8.16312C16.0423 8.95084 14.5188 10.225 13.4284 11.8393C12.3307 13.449 11.7418 15.3512 11.7378 17.2996C11.7528 18.8965 11.9951 20.4831 12.4572 22.0117C12.8313 23.321 13.2198 24.3641 13.4788 25.0907C13.6316 25.4598 13.7566 25.8397 13.8529 26.2274C13.6485 25.8823 13.4775 25.5186 13.3421 25.1411C13.0471 24.4217 12.6227 23.4001 12.2054 22.0836C11.6933 20.539 11.4144 18.9265 11.3781 17.2996C11.359 15.2776 11.9617 13.2986 13.1047 11.6307C14.2331 9.95739 15.8189 8.64385 17.6729 7.84658C19.1838 7.2105 20.8205 6.92992 22.457 7.02645C23.5564 7.08248 24.6364 7.33846 25.6439 7.78183C25.9133 7.90611 26.1731 8.0504 26.4209 8.21347C26.5232 8.25843 26.6179 8.31912 26.7015 8.39333Z" fill="#263238"/>
<path d="M27.0324 36.5437C27.1472 36.4741 27.2675 36.414 27.3921 36.3638C27.7522 36.2013 28.1252 36.069 28.5072 35.9682C29.1135 35.7892 29.739 35.6829 30.3704 35.6516C31.2293 35.6055 32.0886 35.7352 32.8956 36.0329C34.7372 36.6804 36.4278 38.558 37.2623 41.0688C37.6625 42.4161 37.6625 43.8508 37.2623 45.1981C36.8186 46.6605 36.0232 47.9919 34.9458 49.0757L34.989 48.8815C35.9458 51.5073 36.989 54.3562 38.0681 57.3273L38.1328 57.5072L37.953 57.5719L36.3055 58.1187L32.7085 59.3201L32.5287 59.3776L32.4711 59.1978C31.4855 56.2194 30.4064 53.4425 29.5935 50.716L29.7517 50.8383C28.3453 50.7215 27.0044 50.1936 25.8957 49.3203C24.8927 48.5478 24.0702 47.5658 23.4857 46.4427C22.9583 45.4468 22.6957 44.332 22.7231 43.2054C22.7564 42.0539 23.0439 40.9241 23.5651 39.8968C24.0862 38.8695 24.828 37.9701 25.7375 37.2631C26.1118 36.9592 26.5319 36.7164 26.982 36.5437C26.5757 36.7848 26.1819 37.0465 25.8022 37.3278C24.8032 38.173 24.0378 39.2604 23.5792 40.486C23.1857 41.4102 23.0015 42.4101 23.0401 43.4138C23.0787 44.4176 23.3389 45.4004 23.8022 46.2916C24.377 47.372 25.1797 48.3146 26.1547 49.0542C27.2123 49.8842 28.4908 50.3846 29.8309 50.493H29.9532L29.9891 50.6009C30.7805 53.2771 31.8668 56.0756 32.8668 59.0683L32.6294 58.9532L36.2264 57.7518L37.8666 57.1978L37.7515 57.4424C36.6796 54.4713 35.6437 51.6152 34.6941 48.9894V48.8815L34.7804 48.7952C35.8263 47.7563 36.6061 46.4804 37.0537 45.0758C37.4353 43.787 37.4353 42.4152 37.0537 41.1263C36.2696 38.7091 34.6509 36.8746 32.8956 36.2271C32.1186 35.9275 31.289 35.7881 30.4568 35.8171C29.8353 35.8313 29.2175 35.9158 28.6151 36.0689C27.5432 36.3351 27.0396 36.5797 27.0324 36.5437Z" fill="#263238"/>
</svg>
