<svg width="60" height="103" viewBox="0 0 60 103" fill="none" xmlns="http://www.w3.org/2000/svg">
<path d="M13.234 76.7335C2.11919 68.9711 -0.398732 54.5614 0.0401059 41.6049C0.112047 39.4467 -0.125349 37.159 0.903402 35.2669C1.93215 33.3749 4.33496 32.0728 6.27017 32.9792C7.87444 33.7346 8.57228 35.605 9.47153 37.1518C10.6714 39.2119 12.4297 40.8904 14.5433 41.9934C15.9174 42.7128 17.6224 43.1444 18.9821 42.3962C20.8525 41.3675 21.0683 38.7992 21.054 36.641C21.054 32.6267 21.03 28.6172 20.982 24.6125C20.8528 22.4621 21.0714 20.3049 21.6295 18.2242C22.2985 16.1811 23.7877 14.289 25.8236 13.7135C27.8595 13.138 30.399 14.325 30.8595 16.4257C30.9387 17.3154 30.9603 18.2093 30.9242 19.1019C30.9818 20.0011 31.399 20.9867 32.2407 21.2601C33.0824 21.5334 33.9601 20.9076 34.6076 20.2745C36.8234 18.1163 38.3341 15.3034 39.7369 12.5265C41.1398 9.74958 42.5138 6.89353 44.5282 4.52668C46.5425 2.15983 49.3266 0.282187 52.4417 0.102335C55.5567 -0.0775161 58.8012 1.83611 59.5782 4.85761C60.3551 7.87912 58.5926 10.9654 56.7005 13.4185C53.8455 17.06 50.4799 20.2704 46.708 22.9507C45.9717 23.3527 45.3841 23.9807 45.0318 24.742C44.5642 26.1808 45.9238 27.6196 47.3411 28.0729C48.9453 28.6052 50.6863 28.4397 52.3769 28.6412C54.0675 28.8426 55.866 29.5764 56.5063 31.1591C57.384 33.3605 55.5423 35.6626 53.7366 37.1733C50.1108 40.1948 45.9937 42.5722 41.5642 44.2019C39.9815 44.7775 38.3197 45.2882 37.0392 46.3961C35.7586 47.504 34.9961 49.4392 35.7658 50.9572C36.5356 52.4751 38.514 52.9571 40.1758 52.6478C41.8376 52.3384 43.3124 51.4464 44.8951 50.8493C47.8518 49.7342 51.6647 49.9356 53.528 52.4895C54.1052 53.3693 54.4706 54.3709 54.5954 55.4156C54.7202 56.4604 54.6011 57.52 54.2474 58.5109C53.5273 60.4831 52.4192 62.2908 50.9885 63.8273C46.2767 69.4569 40.1545 73.7345 33.2479 76.2227C26.392 78.5967 20.0396 79.2442 13.2268 76.7479" fill="#4CAF4F"/>
<path d="M56.4128 1.87927C56.4128 1.87927 56.348 1.95121 56.2041 2.08071L55.5639 2.64903C55.0027 3.15262 54.1754 3.88642 53.1323 4.85761C50.1747 7.60369 47.4284 10.5689 44.9167 13.7279C43.3124 15.7206 41.6506 17.9796 39.8808 20.4328C38.1111 22.8859 36.2838 25.5334 34.4709 28.3462C32.5381 31.3125 30.7681 34.3817 29.1688 37.5402C28.3343 39.1877 27.6006 40.9071 26.8452 42.6624L24.615 48.022C21.6754 54.7729 19.1151 61.6828 16.9461 68.7193C15.1991 74.4765 13.9948 80.3846 13.3491 86.3663C12.9307 90.4031 12.8633 94.4686 13.1477 98.5171C13.2628 99.9559 13.3707 101.057 13.4714 101.805C13.5146 102.164 13.5434 102.452 13.5721 102.661V102.956C13.5412 102.862 13.5195 102.766 13.5074 102.668C13.4714 102.459 13.4282 102.179 13.3707 101.819C13.2412 101.1 13.1045 99.9631 12.975 98.5243C12.6279 94.4683 12.652 90.3891 13.047 86.3376C13.6526 80.3303 14.8306 74.3947 16.5649 68.6114C18.7156 61.5551 21.2689 54.6278 24.2122 47.8637L26.4999 42.5257C27.2552 40.7776 27.9962 39.0438 28.8379 37.3892C30.4483 34.2211 32.2328 31.1445 34.1831 28.1736C36.0248 25.2959 37.8809 22.6917 39.629 20.2601C41.3772 17.8285 43.0678 15.5552 44.6649 13.5696C47.2021 10.4189 49.9854 7.47451 52.9884 4.76409C54.0531 3.80728 54.902 3.08787 55.4775 2.60587L56.1466 2.06631C56.2286 1.99491 56.3178 1.93222 56.4128 1.87927Z" fill="#263238"/>
<path d="M28.9315 37.3748C28.83 37.0784 28.76 36.7722 28.7228 36.4611C28.6077 35.864 28.4782 35.0223 28.3272 33.9288C28.0178 31.7706 27.7013 28.8138 27.3632 25.5405C27.025 22.2672 26.6438 19.3033 26.3272 17.1667C26.1618 16.1019 26.0179 15.2458 25.9171 14.6487C25.8385 14.3431 25.7975 14.0291 25.7949 13.7135C25.9187 14.0017 26.0081 14.3036 26.061 14.6128C26.2193 15.2027 26.3992 16.0516 26.6006 17.1235C27.0107 19.2817 27.4135 22.2169 27.7516 25.4974C28.0897 28.7779 28.3775 31.6555 28.6005 33.8928C28.7085 34.9 28.802 35.7561 28.8739 36.4396C28.9298 36.7479 28.9491 37.0618 28.9315 37.3748Z" fill="#263238"/>
<path d="M56.6142 32.2094C56.2641 32.2856 55.9076 32.329 55.5495 32.3389C54.8301 32.4037 53.8085 32.49 52.5424 32.6339C50.01 32.9073 46.5281 33.4108 42.7081 34.1302C38.888 34.8496 35.4565 35.6626 32.9889 36.2885C31.7587 36.605 30.7659 36.8928 30.1113 37.087C29.7617 37.2112 29.4 37.298 29.0322 37.346C29.3646 37.1788 29.7113 37.0416 30.0681 36.9359C30.7443 36.6985 31.7227 36.3676 32.9457 36.0151C35.3989 35.2957 38.8305 34.4396 42.6649 33.7058C45.913 33.0847 49.1905 32.6285 52.4848 32.3389C53.7581 32.231 54.7869 32.1878 55.5063 32.1734C55.8759 32.1483 56.247 32.1604 56.6142 32.2094Z" fill="#263238"/>
<path d="M16.9174 68.1078C16.8407 68.0036 16.7778 67.89 16.7303 67.7697L16.2555 66.7697C15.8455 65.8992 15.2915 64.6115 14.6297 63.036C13.2916 59.8706 11.5866 55.439 9.77368 50.5183C7.96078 45.5976 6.29175 41.166 5.0256 37.9647C4.40691 36.4108 3.89615 35.1374 3.51486 34.1878L3.11197 33.159C3.05613 33.0404 3.0174 32.9144 2.99689 32.7849C3.07359 32.8891 3.13644 33.0027 3.18392 33.1231L3.65873 34.123C4.0616 34.9935 4.62274 36.2813 5.28459 37.8568C6.62269 41.0222 8.32768 45.4537 10.1406 50.3744C11.9535 55.2952 13.6225 59.7267 14.8887 62.9281C15.5074 64.482 16.0181 65.7553 16.3922 66.7049C16.5577 67.115 16.6944 67.4244 16.8023 67.7337C16.8581 67.8523 16.8969 67.9783 16.9174 68.1078Z" fill="#263238"/>
<path d="M53.6647 56.2592C53.5495 56.3253 53.4261 56.3761 53.2978 56.4103L52.2331 56.77L48.2979 58.0433C44.9743 59.1224 40.3844 60.662 35.3486 62.3598C30.3128 64.0576 25.7013 65.5683 22.3561 66.5755C20.6871 67.0862 19.3274 67.4747 18.385 67.7337L17.2987 68.0143C17.1724 68.0544 17.0422 68.0809 16.9102 68.0934C17.0254 68.0273 17.1487 67.9765 17.2771 67.9423L18.3418 67.5826L22.277 66.3093C25.6006 65.2302 30.1905 63.6907 35.2263 61.9929C40.2621 60.2951 44.8663 58.7843 48.2116 57.7771C49.8878 57.2663 51.2403 56.8779 52.1899 56.6189L53.2762 56.3383C53.4025 56.2982 53.5327 56.2717 53.6647 56.2592Z" fill="#263238"/>
</svg>
