<svg width="23" height="23" viewBox="0 0 23 23" fill="none" xmlns="http://www.w3.org/2000/svg">
<path opacity="0.1" fill-rule="evenodd" clip-rule="evenodd" d="M0.674133 11.2779C0.674133 5.12706 5.66039 0.140808 11.8112 0.140808C17.9621 0.140808 22.9484 5.12706 22.9484 11.2779C22.9484 17.4288 17.9621 22.415 11.8112 22.415C5.66039 22.415 0.674133 17.4288 0.674133 11.2779Z" fill="white"/>
<path fill-rule="evenodd" clip-rule="evenodd" d="M11.4777 9.19318L11.501 9.57855L11.1115 9.53136C9.69373 9.35047 8.45509 8.73702 7.40341 7.70675L6.88926 7.19555L6.75683 7.57305C6.47638 8.41457 6.65556 9.30328 7.23982 9.901C7.55143 10.2313 7.48131 10.2785 6.94379 10.0819C6.75683 10.019 6.59323 9.97178 6.57765 9.99537C6.52312 10.0504 6.71009 10.7661 6.8581 11.0492C7.06064 11.4425 7.47352 11.8278 7.92535 12.0559L8.30707 12.2368L7.85524 12.2447C7.41899 12.2447 7.40341 12.2525 7.45015 12.4177C7.60596 12.9289 8.22138 13.4716 8.90692 13.7075L9.38991 13.8727L8.96924 14.1243C8.34602 14.4861 7.61375 14.6906 6.88147 14.7063C6.53091 14.7142 6.24268 14.7456 6.24268 14.7692C6.24268 14.8479 7.19308 15.2883 7.74618 15.4613C9.40549 15.9725 11.3764 15.7523 12.8565 14.8793C13.9082 14.258 14.9599 13.0233 15.4507 11.8278C15.7155 11.1908 15.9804 10.0268 15.9804 9.46844C15.9804 9.10666 16.0038 9.05948 16.44 8.62692C16.6971 8.37525 16.9386 8.09999 16.9853 8.02134C17.0632 7.87191 17.0554 7.87191 16.6581 8.00561C15.996 8.24155 15.9025 8.21009 16.2297 7.85618C16.4712 7.60451 16.7594 7.14836 16.7594 7.01466C16.7594 6.99107 16.6426 7.03039 16.5101 7.10117C16.3699 7.17982 16.0583 7.29779 15.8246 7.36857L15.4039 7.50227L15.0222 7.24274C14.8119 7.10117 14.5158 6.94388 14.36 6.89669C13.9627 6.78658 13.3551 6.80231 12.9968 6.92815C12.023 7.28206 11.4076 8.19436 11.4777 9.19318Z" fill="white"/>
</svg>
