<svg width="39" height="43" viewBox="0 0 39 43" fill="none" xmlns="http://www.w3.org/2000/svg">
<path d="M19.4897 0.16814H19.1516L18.1732 0.240085C17.6437 0.271896 17.1172 0.341623 16.5977 0.448719C16.2612 0.495967 15.9274 0.560795 15.5977 0.642951L14.4826 0.952301C12.5847 1.53458 10.794 2.42141 9.18062 3.57813C7.04893 5.12541 5.26895 7.10644 3.95773 9.39093C3.18706 10.7078 2.57375 12.1107 2.13044 13.5707C1.66462 15.1575 1.39642 16.7957 1.3319 18.4483C1.28903 19.3163 1.30345 20.1863 1.37507 21.0525C1.37507 21.4914 1.49737 21.9302 1.55492 22.3762C1.60333 22.8258 1.68752 23.2709 1.80671 23.7071C2.45361 26.5939 3.76621 29.2896 5.63978 31.5791C7.51335 33.8686 9.89605 35.6886 12.5978 36.8938C14.5532 37.7376 16.6491 38.2085 18.7775 38.2823C20.9758 38.4032 23.1763 38.0878 25.2522 37.3542L25.8852 37.1168H25.9716L26.0435 37.16L35.1152 41.7642L34.849 41.9944C33.8778 38.9873 32.9426 36.0737 32.0362 33.2752V33.1673L32.1153 33.0882C34.316 30.8716 35.9496 28.1571 36.8778 25.1747C37.7184 22.4481 37.9637 19.5728 37.5972 16.7433C37.2711 14.2286 36.4626 11.8005 35.2159 9.59237C34.1413 7.69553 32.7551 5.99312 31.1153 4.55652C29.7625 3.41944 28.2651 2.46635 26.6622 1.72206C25.4494 1.19897 24.1862 0.801229 22.8925 0.535044L21.4537 0.297639L20.4106 0.218504L19.7775 0.175341H19.5617C19.6334 0.167382 19.7058 0.167382 19.7775 0.175341H20.4177L21.4609 0.218504L22.8997 0.427127C24.2095 0.673826 25.4899 1.05722 26.7197 1.57099C28.3502 2.30643 29.8745 3.25733 31.252 4.39825C32.9219 5.82848 34.3376 7.53116 35.4389 9.4341C36.721 11.666 37.5543 14.1269 37.8921 16.6785C38.2891 19.5518 38.0609 22.4769 37.2231 25.2538C36.2889 28.2982 34.63 31.0705 32.3887 33.3328L32.4318 33.1457C33.3383 35.9442 34.2807 38.8578 35.2591 41.8577L35.3958 42.2966L34.9857 42.0879L25.914 37.4909H26.0723L25.4248 37.7283C23.309 38.4729 21.0678 38.7955 18.8279 38.678C16.6536 38.5952 14.5139 38.1072 12.5187 37.2392C8.7128 35.6092 5.54634 32.7763 3.50451 29.1746C2.5649 27.5112 1.87871 25.7169 1.46859 23.851C1.35628 23.4035 1.27218 22.9494 1.2168 22.4913C1.15924 22.0381 1.06572 21.5921 1.04414 21.146C0.849439 18.5863 1.11999 16.0124 1.84268 13.5491C2.29703 12.069 2.92743 10.6488 3.72033 9.31899C5.06283 7.01374 6.87989 5.02012 9.05113 3.47022C10.6911 2.31054 12.5119 1.43054 14.4395 0.865965L15.5689 0.578207C15.9014 0.501098 16.2375 0.441069 16.5761 0.398355C17.101 0.301161 17.6325 0.243443 18.166 0.225694L19.1516 0.189733C19.2637 0.174639 19.3766 0.167417 19.4897 0.16814Z" fill="#4CAF4F"/>
<path d="M23.5903 16.9447H22.2594L19.3818 12.9016V10.247C19.3818 10.247 17.3243 10.1175 17.5689 13.5923C17.8135 17.067 17.5689 16.1821 17.5689 16.1821C17.5689 16.1821 13.2021 16.1821 12.8424 16.5778C12.4827 16.9735 12.4611 21.1892 12.4107 23.5416C12.3832 24.1087 12.5459 24.6688 12.873 25.1328C13.2002 25.5968 13.673 25.9382 14.2164 26.1027C14.3687 26.1449 14.526 26.1667 14.684 26.1675C15.7775 26.1675 21.3386 25.2826 21.3386 25.2826H23.6335L23.5903 16.9447Z" fill="#4CAF4F"/>
<path d="M27.396 16.2325L26.5759 25.3257H24.3026V16.4195L27.396 16.2325Z" fill="#4CAF4F"/>
</svg>
