<svg width="10" height="12" viewBox="0 0 10 12" fill="none" xmlns="http://www.w3.org/2000/svg">
<path d="M5.81786 6.26954C6.31761 6.04946 6.7416 5.68729 7.03708 5.22808C7.33257 4.76886 7.48649 4.23289 7.47969 3.68687C7.49831 3.33192 7.44447 2.9769 7.32146 2.64342C7.19845 2.30995 7.00885 2.00501 6.76419 1.74717C6.51953 1.48934 6.22494 1.28402 5.89837 1.1437C5.5718 1.00339 5.22008 0.93103 4.86464 0.93103C4.5092 0.93103 4.15748 1.00339 3.83091 1.1437C3.50434 1.28402 3.20975 1.48934 2.96509 1.74717C2.72043 2.00501 2.53082 2.30995 2.40782 2.64342C2.28481 2.9769 2.23099 3.33192 2.24961 3.68687C2.23865 4.23836 2.39132 4.78074 2.68837 5.24552C2.98542 5.7103 3.41352 6.07665 3.91862 6.29832C-0.110057 6.90262 0.0698122 11.2766 0.0698122 11.2766L9.59474 11.3198C9.59474 11.3198 9.81776 6.86665 5.81786 6.26954Z" fill="#4CAF4F"/>
</svg>
