<svg width="4" height="4" viewBox="0 0 4 4" fill="none" xmlns="http://www.w3.org/2000/svg">
<path d="M3.23575 1.97917C3.2499 2.18198 3.22217 2.38552 3.15429 2.57716C3.0864 2.7688 2.97981 2.94443 2.84115 3.09312C2.70248 3.2418 2.53471 3.36036 2.34826 3.44143C2.16181 3.52249 1.96067 3.56433 1.75736 3.56433C1.55405 3.56433 1.35292 3.52249 1.16647 3.44143C0.980018 3.36036 0.812243 3.2418 0.673577 3.09312C0.534911 2.94443 0.428323 2.7688 0.360439 2.57716C0.292555 2.38552 0.264831 2.18198 0.278988 1.97917C0.264831 1.77635 0.292555 1.57279 0.360439 1.38115C0.428323 1.1895 0.534911 1.01387 0.673577 0.865192C0.812243 0.71651 0.980018 0.597947 1.16647 0.516883C1.35292 0.43582 1.55405 0.393982 1.75736 0.393982C1.96067 0.393982 2.16181 0.43582 2.34826 0.516883C2.53471 0.597947 2.70248 0.71651 2.84115 0.865192C2.97981 1.01387 3.0864 1.1895 3.15429 1.38115C3.22217 1.57279 3.2499 1.77635 3.23575 1.97917Z" fill="#4CAF4F"/>
</svg>
