<svg width="4" height="4" viewBox="0 0 4 4" fill="none" xmlns="http://www.w3.org/2000/svg">
<path d="M3.58065 2.05829C3.56101 2.3466 3.45751 2.62287 3.28288 2.85311C3.10826 3.08336 2.87012 3.25755 2.59779 3.3542C2.32546 3.45086 2.03081 3.46578 1.75011 3.39715C1.4694 3.32851 1.21488 3.17929 1.01788 2.96787C0.820875 2.75645 0.689969 2.49206 0.641292 2.20721C0.592614 1.92236 0.628292 1.6295 0.743907 1.36466C0.859522 1.09982 1.05004 0.874546 1.29202 0.716586C1.53401 0.558625 1.81688 0.474856 2.10586 0.475591C2.51106 0.490592 2.89381 0.665601 3.17023 0.962257C3.44666 1.25891 3.59426 1.65304 3.58065 2.05829Z" fill="#4CAF4F"/>
</svg>
