<svg width="75" height="13" viewBox="0 0 75 13" fill="none" xmlns="http://www.w3.org/2000/svg">
<path d="M72.8889 12.8279C73.0344 12.8108 73.1786 12.7843 73.3206 12.7488C73.5206 12.6852 73.7049 12.5799 73.8612 12.4397C74.0174 12.2996 74.1422 12.1278 74.2271 11.9359C74.3398 11.6453 74.3841 11.3327 74.3565 11.0222C74.3565 10.6697 74.3565 10.3028 74.3565 9.87837C74.3565 9.05105 74.3565 8.09424 74.3565 7.00075V2.43251C74.3909 2.10178 74.3177 1.76877 74.1479 1.48289C73.9662 1.19504 73.6884 0.980929 73.3638 0.878591C73.0057 0.812096 72.6409 0.79035 72.2775 0.813847H61.9252L1.9627 0.590833C1.64017 0.591595 1.32888 0.709457 1.08673 0.9225C0.844573 1.13554 0.68803 1.42926 0.646189 1.74907C0.646189 2.46847 0.646189 3.18788 0.646189 3.90729C0.646189 5.3461 0.646189 6.78491 0.646189 8.22372C0.646189 8.94313 0.646189 9.66254 0.646189 10.3819C0.619399 10.7158 0.633894 11.0516 0.689351 11.3819C0.775506 11.6755 0.961192 11.9298 1.21451 12.1013C1.4786 12.2738 1.79203 12.3546 2.10658 12.3315H5.23599L21.1565 12.4179L48.1126 12.5833L66.2848 12.7272L71.2271 12.7848H66.2848H48.1126L21.1565 12.7056L5.23599 12.6409H2.10658C1.71715 12.6672 1.33001 12.5634 1.00589 12.3459C0.678543 12.1192 0.439637 11.7862 0.329648 11.4035C0.265169 11.038 0.245839 10.6659 0.272094 10.2956C0.272094 9.57621 0.272094 8.8568 0.272094 8.1374C0.272094 6.69859 0.272094 5.25977 0.272094 3.82096C0.272094 3.10155 0.272094 2.38216 0.272094 1.62678C0.322954 1.21603 0.522107 0.837997 0.832111 0.563763C1.14211 0.28953 1.54161 0.137975 1.9555 0.137604L61.918 0.468524L72.2703 0.547671C72.6558 0.524022 73.0427 0.550613 73.4213 0.626795C73.7951 0.748921 74.1103 1.00523 74.3062 1.3462C74.4923 1.66307 74.5729 2.03087 74.5364 2.39653C74.5364 2.73465 74.5364 3.07278 74.5364 3.39651C74.5364 4.69864 74.5364 5.89285 74.5364 6.99354C74.5364 8.09424 74.5364 9.02227 74.5364 9.87117C74.5364 10.2812 74.5364 10.6625 74.5364 11.015C74.564 11.3368 74.5121 11.6604 74.3853 11.9574C74.292 12.1559 74.1569 12.332 73.9892 12.4735C73.8216 12.615 73.6255 12.7188 73.4141 12.7776C73.2454 12.8353 73.0655 12.8526 72.8889 12.8279Z" fill="#E0E0E0"/>
</svg>
