<svg width="4" height="4" viewBox="0 0 4 4" fill="none" xmlns="http://www.w3.org/2000/svg">
<path d="M3.65315 1.95755C3.63192 2.24693 3.52622 2.5237 3.34914 2.75355C3.17206 2.98341 2.9314 3.15622 2.65701 3.25056C2.38262 3.3449 2.08657 3.35662 1.80558 3.28426C1.52459 3.2119 1.27102 3.05866 1.07633 2.84352C0.881633 2.62839 0.754382 2.36081 0.710346 2.07402C0.666309 1.78722 0.707424 1.49381 0.828604 1.23017C0.949784 0.966533 1.1457 0.744272 1.39203 0.590945C1.63837 0.437617 1.92429 0.359971 2.21434 0.367645C2.61513 0.389978 2.99097 0.569435 3.26032 0.867067C3.52967 1.1647 3.67082 1.55652 3.65315 1.95755Z" fill="#4CAF4F"/>
</svg>
