<svg width="4" height="4" viewBox="0 0 4 4" fill="none" xmlns="http://www.w3.org/2000/svg">
<path d="M3.74586 2.10145C3.72622 2.38976 3.62272 2.66605 3.44809 2.8963C3.27346 3.12654 3.03533 3.30071 2.763 3.39736C2.49066 3.49402 2.19602 3.50894 1.91531 3.44031C1.6346 3.37167 1.38009 3.22245 1.18308 3.01103C0.98608 2.79961 0.855196 2.53522 0.806518 2.25037C0.757841 1.96552 0.793497 1.67266 0.909112 1.40782C1.02473 1.14298 1.21525 0.917706 1.45723 0.759746C1.69921 0.601786 1.98211 0.518038 2.27108 0.518773C2.67629 0.533774 3.05903 0.708761 3.33546 1.00542C3.61189 1.30207 3.75946 1.6962 3.74586 2.10145Z" fill="#4CAF4F"/>
</svg>
